<svg width="100" height="100" viewBox="0 0 100 100" xmlns="http://www.w3.org/2000/svg">
    <g fill="none" fill-rule="evenodd">
        <path d="M0 0h100v100H0z"/>
        <path fill="#0E1F3D" d="M0 0v100h100V0z"/>
        <path d="M18.098 59.125c0 .242.08.421.242.541.16.122.346.181.562.181v.724h-6.268v-.724c.588 0 .885-.242.885-.722V40.887c0-.483-.297-.722-.885-.722v-.722h6.268v.722a.907.907 0 0 0-.562.178c-.162.123-.242.304-.242.544v7.634l8.313-6.548c.377-.322.673-.583.887-.785.212-.2.32-.367.32-.504 0-.185-.061-.317-.179-.4a.75.75 0 0 0-.423-.12v-.721h8.433v.722c-.48 0-.961.202-1.444.602l-9.238 7.352 8.436 9.76c.346.402.755.797 1.223 1.185.468.388.93.649 1.388.783v.724h-7.432v-.724c.346 0 .522-.092.522-.28 0-.134-.188-.428-.564-.884l-6.87-7.914-3.372 2.61v5.746zm44.268-18.961c-.537 0-.925.195-1.164.583a8 8 0 0 0-.523.943l-7.112 15.626c-.24.536-.442.966-.602 1.286-.16.32-.24.548-.24.685 0 .131.033.24.1.32.068.08.152.16.26.24v.724H46.94v-.725a.568.568 0 0 0 .362-.56c0-.136-.1-.409-.303-.825-.2-.414-.45-.929-.743-1.547l-7.23-15.704c-.134-.296-.322-.51-.562-.644-.242-.134-.588-.266-1.044-.402v-.722h7.192v.722c-.19 0-.37.047-.544.141-.176.094-.26.275-.26.54 0 .297.112.671.34 1.127.226.454.501 1.019.824 1.687l5.14 11.046 5.022-10.884c.322-.696.623-1.32.903-1.867.284-.55.423-.934.423-1.146 0-.428-.376-.644-1.124-.644v-.722h7.03v.722zm15.678 16.711c1.688 0 2.9-.26 3.635-.785.737-.52 1.106-1.209 1.106-2.067 0-.857-.37-1.548-1.106-2.07-.736-.52-1.947-.78-3.635-.78h-7.672v5.702h7.672zm0-9.16c1.206 0 2.203-.153 2.993-.461.79-.308 1.183-.957 1.183-1.947 0-.99-.392-1.642-1.183-1.95-.79-.306-1.787-.461-2.993-.461h-7.672v4.819h7.672zm-.802-8.274c1.232 0 2.422.101 3.574.301 1.15.202 2.169.522 3.053.964.884.443 1.592 1.019 2.128 1.727.537.71.805 1.587.805 2.631 0 1.261-.388 2.23-1.167 2.914-.776.682-1.7 1.212-2.77 1.585v.08c1.258.377 2.321.972 3.194 1.79.87.816 1.305 1.987 1.305 3.514 0 .802-.174 1.545-.522 2.23-.348.684-.863 1.279-1.548 1.787-.682.508-1.52.905-2.51 1.185-.99.28-2.116.421-3.374.421H64.669v-.722c.748 0 1.124-.242 1.124-.722V40.888c0-.483-.376-.725-1.124-.725v-.722h12.573z" fill="#FFF"/>
    </g>
</svg>
